:SAMPLES-PER-SECOND 30
:FULLY-SPECIFIED
:DEGREES
743
root  70.9729 22.6444 5.94144 36.3017 -17.7739 128.045
RightUpLeg  119.742 5.70148 56.5084
RightLeg  112.975 2.23076 -3.94094
RightFoot  -14.6152 0.733692 28.6722
RightToes  3.49245e-010 0 -3.6325e-017
Spine  -81.953 44.198 -166.552
Spine1  136.767 40.8773 -169.834
HEad  -2.46282 16.0724 -0.533439
LeftShoulder1  -0.471467 11.452 2.91794
LeftArm  -53.1724 -45.182 6.14973
LeftForeArm  -24.7365 -61.5491 -23.573
LeftHand  -0.0262026 9.97024 0.676713
RightShoulder  -0.833042 -0.488883 -40.8227
RightArm  -49.7148 17.3159 41.2788
RightForeArm  -20.3239 67.5391 31.5996
RightHand  -1.0859 11.0893 -8.02283
LeftUpLeg  122.699 -52.9407 49.1362
LeftLeg  70.8755 -7.26067 -21.4629
LeftFoot  -21.2212 0.393514 3.0819
LeftToes  -5.36635e-011 -6.70219e-011 5.24975e-011
744
root  70.4475 22.85 5.76952 37.0066 -20.2614 128.766
RightUpLeg  116.462 4.13386 56.8002
RightLeg  114.161 2.35558 -3.97238
RightFoot  0.564078 -2.22573 23.2114
RightToes  3.49245e-010 0 -3.6325e-017
Spine  -86.694 23.3953 137.699
Spine1  -31.2463 86.4101 6.54913
HEad  -3.17455 16.5927 -0.0535567
LeftShoulder1  -0.454405 11.566 3.26096
LeftArm  -53.939 -43.9006 7.57292
LeftForeArm  -26.2493 -60.8609 -22.9618
LeftHand  -0.0198692 8.74578 0.906279
RightShoulder  -1.59056 1.63635 -44.4064
RightArm  -53.2825 16.858 44.4214
RightForeArm  -19.126 66.6897 30.0127
RightHand  -1.02735 11.3605 -7.50391
LeftUpLeg  125.907 -49.2174 45.6022
LeftLeg  70.4505 -6.84687 -19.7896
LeftFoot  -22.604 0.378446 2.46486
LeftToes  -5.36635e-011 -6.70219e-011 5.24975e-011
745
root  70.0798 22.4655 5.64482 35.154 -26.6535 127.196
RightUpLeg  117.16 4.44649 54.4657
RightLeg  116.235 1.55522 -2.1628
RightFoot  4.86595 -1.1727 6.89842
RightToes  3.49245e-010 0 -3.6325e-017
Spine  -111.556 -33.3311 -15.9762
Spine1  -21.9707 -60.8971 -30.7918
HEad  -3.43092 16.7323 0.848202
LeftShoulder1  -0.505329 11.834 2.76875
LeftArm  -54.6439 -43.3255 8.09676
LeftForeArm  -26.7511 -59.9233 -22.075
LeftHand  -0.017953 8.10841 1.04237
RightShoulder  -2.2676 3.27562 -46.8964
RightArm  -55.165 17.1143 45.4663
RightForeArm  -20.1168 65.8701 28.7736
RightHand  -1.16503 12.2869 -8.04397
LeftUpLeg  133.371 -42.3069 37.3195
LeftLeg  72.1346 -5.02755 -16.1221
LeftFoot  -23.5459 0.323944 1.70049
LeftToes  -5.36635e-011 -6.70219e-011 5.24975e-011
746
root  69.9862 21.6894 5.62826 34.0784 -33.4904 127.173
RightUpLeg  116.692 8.00497 50.8513
RightLeg  115.945 -0.929357 2.59332
RightFoot  -9.32973 -0.0151815 2.6453
RightToes  3.49245e-010 0 -3.6325e-017
Spine  -112.485 -19.215 -0.0889556
Spine1  -28.846 -45.1692 -26.3519
HEad  -3.27458 17.5317 1.82967
LeftShoulder1  -0.50648 12.0052 2.89669
LeftArm  -55.6907 -42.4056 8.20096
LeftForeArm  -27.0517 -59.1941 -21.425
LeftHand  -0.00271231 8.41764 1.56608
RightShoulder  -2.84968 4.5019 -49.1228
RightArm  -56.9859 17.8187 47.3362
RightForeArm  -19.9769 65.2292 27.8117
RightHand  -1.23364 12.7549 -8.28036
LeftUpLeg  135.971 -34.1253 31.8554
LeftLeg  75.3245 -3.33022 -13.6003
LeftFoot  -23.9187 0.282955 1.26202
LeftToes  -5.36635e-011 -6.70219e-011 5.24975e-011
747
root  69.4611 21.9291 5.08344 44.9469 -54.1376 99.2885
RightUpLeg  135.469 7.93918 41.5175
RightLeg  108.08 -0.0445796 0.641863
RightFoot  -16.075 0.126873 6.14459
RightToes  3.49245e-010 0 -3.6325e-017
Spine  -85.3349 -11.7444 0.702118
Spine1  -42.2648 -34.6191 -22.0895
HEad  -3.38481 17.865 2.46046
LeftShoulder1  -0.535047 11.9914 2.50283
LeftArm  -56.9097 -41.6565 9.20985
LeftForeArm  -27.0764 -58.339 -20.6843
LeftHand  -0.00679946 8.21977 1.50845
RightShoulder  -3.21491 5.16611 -50.5571
RightArm  -58.4715 19.0779 48.4422
RightForeArm  -20.1326 64.5094 26.8103
RightHand  -1.34639 13.3634 -8.72609
LeftUpLeg  153.805 -22.0308 21.7943
LeftLeg  79.9418 -2.14062 -11.4456
LeftFoot  -24.8434 0.205312 0.486112
LeftToes  -5.36635e-011 -6.70219e-011 5.24975e-011
748
root  68.8875 23.4168 3.32341 -97.1938 -62.0796 177.523
RightUpLeg  -148.504 -2.70536 20.0884
RightLeg  94.3608 0.654494 -1.75318
RightFoot  -17.2473 0.341181 8.75536
RightToes  3.49245e-010 0 -3.6325e-017
Spine  21.6009 -1.50505 3.42893
Spine1  -88.3997 -2.43843 2.50553
HEad  -3.78422 17.455 2.9383
LeftShoulder1  -0.518498 11.7379 2.50939
LeftArm  -58.1534 -41.2129 9.65282
LeftForeArm  -26.9324 -57.3637 -19.8768
LeftHand  -0.0303692 9.06341 0.553615
RightShoulder  -3.74662 6.2043 -52.1165
RightArm  -60.2876 18.8918 49.1921
RightForeArm  -19.1403 64.3138 26.4713
RightHand  -1.22673 12.6457 -8.28686
LeftUpLeg  -143.715 10.0665 -7.6441
LeftLeg  92.6932 0.420842 -6.7873
LeftFoot  -25.4661 0.0319567 -0.98451
LeftToes  -5.36635e-011 -6.70219e-011 5.24975e-011
